<svg width="720" height="343" viewBox="0 0 720 343" fill="none" xmlns="http://www.w3.org/2000/svg">
<g filter="url(#filter0_d_8179_19481)">
<path d="M35.4436 52.6758C40.5056 56.9385 43.0908 74.7986 44.3243 81.7748C47.3733 99.0428 49.3073 116.696 49.5836 134.25C51.2512 134.25 51.4584 130.974 51.5571 129.819C53.1655 109.7 52.7807 91.3265 56.9447 71.0687C57.9018 66.3915 60.1417 53.6625 63.9999 51.4917C73.6305 46.0547 75.604 56.7214 77.3407 63.5793C90.3854 115.156 89.2704 214.926 79.699 267.49C78.7419 272.759 76.1862 291.033 70.7788 292.109C60.1319 294.22 60.0727 285.35 58.1485 277.15C52.9287 254.909 52.3662 231.849 50.5605 209.252L44.3637 261.747C41.7982 269.394 41.6897 289.751 32.1084 291.921C25.3295 293.451 9.65015 293.51 8.19963 284.669L8.16016 57.8069C9.80802 49.1038 30.1448 48.2059 35.4535 52.6758H35.4436Z" fill="#BFF85A"/>
<path d="M102.504 57.3637C103.994 57.1071 104.971 58.903 105.662 59.9193C116.654 75.9737 118.095 161.554 117.71 184.131C117.296 208.385 116.102 257.041 107.833 278.848C106.688 281.857 105.731 284.995 102.346 286.022C97.1166 285.587 92.6566 254.515 92.0152 249.206C86.0454 199.711 85.4533 128.587 94.1367 79.6542C94.8965 75.3915 97.837 58.1629 102.504 57.3736V57.3637Z" fill="#BFF85A"/>
<path d="M135.412 71.1084C140.484 84.982 142.181 100.306 143.306 115.028C146.414 155.485 146.799 208.098 141.214 248.1C140.711 251.732 137.534 272.414 133.942 272.384C130.715 269.444 129.738 264.007 128.811 259.774C120.009 219.88 120.631 129.257 127.804 88.6428C128.169 86.5904 131.396 68.2073 135.412 71.1084Z" fill="#BFF85A"/>
<path d="M161.569 96.7835C163.721 96.7835 165.585 109.039 165.881 111.2C170.036 140.99 170.055 179.64 167.973 209.736C167.717 213.505 164.826 246.739 161.569 246.729C154.356 230.26 155.846 210.604 155.195 192.932C154.307 168.707 153.695 144.216 156.152 119.962C156.458 116.972 159.033 96.7835 161.569 96.7835Z" fill="#BFF85A"/>
<path d="M186.731 207.279C184.314 207.822 184.57 206.372 184.087 204.546C182.715 199.336 182.034 189.725 181.768 184.13C181.008 168.165 182.084 150.897 184.778 135.247C188.083 138.849 188.458 147.522 188.754 152.476C189.83 170.632 188.636 189.301 186.731 207.279Z" fill="#BFF85A"/>
</g>
<path d="M327.509 272H262.471V71.0976H329.569C349.254 71.0976 366.159 75.1196 380.285 83.1635C394.411 91.1421 405.234 102.619 412.755 117.596C420.341 132.506 424.134 150.393 424.134 171.255C424.134 192.182 420.309 210.166 412.657 225.208C405.071 240.249 394.084 251.825 379.697 259.934C365.309 267.978 347.913 272 327.509 272ZM292.783 245.514H325.841C341.144 245.514 353.864 242.636 364.001 236.881C374.138 231.061 381.724 222.657 386.759 211.67C391.795 200.618 394.313 187.146 394.313 171.255C394.313 155.494 391.795 142.12 386.759 131.133C381.789 120.146 374.367 111.808 364.491 106.118C354.616 100.429 342.354 97.5838 327.705 97.5838H292.783V245.514ZM514.655 275.041C500.529 275.041 488.202 271.804 477.673 265.329C467.144 258.855 458.969 249.797 453.149 238.157C447.328 226.516 444.418 212.913 444.418 197.348C444.418 181.718 447.328 168.05 453.149 156.344C458.969 144.638 467.144 135.547 477.673 129.073C488.202 122.598 500.529 119.361 514.655 119.361C528.781 119.361 541.109 122.598 551.638 129.073C562.167 135.547 570.342 144.638 576.162 156.344C581.982 168.05 584.893 181.718 584.893 197.348C584.893 212.913 581.982 226.516 576.162 238.157C570.342 249.797 562.167 258.855 551.638 265.329C541.109 271.804 528.781 275.041 514.655 275.041ZM514.753 250.419C523.909 250.419 531.495 247.999 537.512 243.16C543.528 238.32 547.975 231.878 550.853 223.834C553.796 215.79 555.267 206.929 555.267 197.25C555.267 187.637 553.796 178.808 550.853 170.764C547.975 162.655 543.528 156.148 537.512 151.243C531.495 146.338 523.909 143.885 514.753 143.885C505.532 143.885 497.881 146.338 491.799 151.243C485.782 156.148 481.302 162.655 478.359 170.764C475.482 178.808 474.043 187.637 474.043 197.25C474.043 206.929 475.482 215.79 478.359 223.834C481.302 231.878 485.782 238.32 491.799 243.16C497.881 247.999 505.532 250.419 514.753 250.419ZM609.345 121.323H638.676V281.81C638.676 291.881 636.845 300.383 633.183 307.315C629.586 314.247 624.223 319.512 617.095 323.108C610.032 326.705 601.301 328.504 590.903 328.504C589.857 328.504 588.876 328.504 587.96 328.504C586.979 328.504 585.965 328.471 584.919 328.406V303.195C585.835 303.195 586.652 303.195 587.372 303.195C588.025 303.195 588.778 303.195 589.628 303.195C596.56 303.195 601.563 301.331 604.637 297.603C607.776 293.941 609.345 288.611 609.345 281.613V121.323ZM623.864 98.0743C618.763 98.0743 614.381 96.3739 610.719 92.9732C607.122 89.5071 605.323 85.3871 605.323 80.613C605.323 75.7736 607.122 71.6535 610.719 68.2528C614.381 64.7867 618.763 63.0537 623.864 63.0537C628.965 63.0537 633.314 64.7867 636.91 68.2528C640.573 71.6535 642.404 75.7736 642.404 80.613C642.404 85.3871 640.573 89.5071 636.91 92.9732C633.314 96.3739 628.965 98.0743 623.864 98.0743ZM669.848 272V121.323H699.179V272H669.848ZM684.661 98.0743C679.56 98.0743 675.178 96.3739 671.516 92.9732C667.919 89.5071 666.121 85.3871 666.121 80.613C666.121 75.7736 667.919 71.6535 671.516 68.2528C675.178 64.7867 679.56 63.0537 684.661 63.0537C689.762 63.0537 694.111 64.7867 697.708 68.2528C701.37 71.6535 703.201 75.7736 703.201 80.613C703.201 85.3871 701.37 89.5071 697.708 92.9732C694.111 96.3739 689.762 98.0743 684.661 98.0743Z" fill="#F5F5F5"/>
<defs>
<filter id="filter0_d_8179_19481" x="-0.00128651" y="50" width="197.323" height="265.435" filterUnits="userSpaceOnUse" color-interpolation-filters="sRGB">
<feFlood flood-opacity="0" result="BackgroundImageFix"/>
<feColorMatrix in="SourceAlpha" type="matrix" values="0 0 0 0 0 0 0 0 0 0 0 0 0 0 0 0 0 0 127 0" result="hardAlpha"/>
<feOffset dy="14.574"/>
<feGaussianBlur stdDeviation="4.08072"/>
<feComposite in2="hardAlpha" operator="out"/>
<feColorMatrix type="matrix" values="0 0 0 0 0 0 0 0 0 0 0 0 0 0 0 0 0 0 0.06 0"/>
<feBlend mode="normal" in2="BackgroundImageFix" result="effect1_dropShadow_8179_19481"/>
<feBlend mode="normal" in="SourceGraphic" in2="effect1_dropShadow_8179_19481" result="shape"/>
</filter>
</defs>
</svg>
